<svg id="Слой_6" data-name="Слой 6" xmlns="http://www.w3.org/2000/svg" viewBox="0 0 805.01 330.67"><defs><style>.cls-1{fill:#9a3467;}</style></defs><title>up-icon-header2</title><path class="cls-1" d="M746.29,301s-47-22-68,32-56,68.33-74.67,68.33S557,374,554.29,373.3,521.62,344,469.62,374s-93.33,66.67-144.67,83.33-85.33,30.67-121.33-14-77.33-110-141.33-118S15,216,15,216s28-69.33,135.33-52S313,185.3,339,167.3,525,128,573.62,156.64s102,22,136.67,22.67,95.33-1.33,104,20S822.29,335.3,746.29,301Z" transform="translate(-13 -142.62)"/></svg>