<svg id="Слой_6" data-name="Слой 6" xmlns="http://www.w3.org/2000/svg" viewBox="0 0 1160.97 494.62"><defs><style>.cls-1{fill:#2b2f74;opacity:0.8;isolation:isolate;}</style></defs><title>up-icon-header</title><path class="cls-1" d="M160.29,351s9,16,83,14c0,0,40-6,59,21s50,27,70,20,29-12,40-4,29,69,29,69,23,63,66,26,56-84,56-84,7-23,23-24,29-3,43,14,57,92,151,39,82-58,110-59,59,24,59,24,51,50,84,9,50-45,88-23,68,19,84-21,54-132,54-132l-25-104-88-38S1160.36,33.1,846.87,70.6s-417,102-462,31.5-87-117-139.49-67.5-117,130.49-141,130.49S133.29,319,160.29,351Z" transform="translate(-98.32 -14)"/></svg>