<svg id="Слой_6" data-name="Слой 6" xmlns="http://www.w3.org/2000/svg" viewBox="0 0 657.86 343.54"><defs><style>.cls-1{fill:#dd8457;opacity:0.8;isolation:isolate;}</style></defs><title>up-icon-header4</title><path class="cls-1" d="M57.62,254s24.67,12,50,54.67,39.33,62,92.67,56,61.33-4,78.67,4,42.67,42,42.67,42,19.33,32,49.33,10.67,39.33-26.67,54.67-15.33,18,35.33,18,35.33S451,506,507,462.64,582.29,433,591.29,436s44,23,55-24,35-87,35-87l-8-71s-36-49-36-53-30-56-30-56-146,29-216,14-177-33-212-21-89,32-116,25S-8,210,57.62,254Z" transform="translate(-23.43 -134.05)"/></svg>