<?xml version="1.0" encoding="utf-8"?>
<!-- Generator: Adobe Illustrator 19.2.1, SVG Export Plug-In . SVG Version: 6.00 Build 0)  -->
<svg version="1.1" id="Слой_6" xmlns="http://www.w3.org/2000/svg" xmlns:xlink="http://www.w3.org/1999/xlink" x="0px" y="0px"
	 viewBox="0 0 837.3 312.3" style="enable-background:new 0 0 837.3 312.3;" xml:space="preserve">
<style type="text/css">
	.st0{opacity:0.8;fill:#20A994;enable-background:new    ;}
</style>
<title>up-icon-header3</title>
<path class="st0" d="M173.6,212.8c-1.6-1.6-3.1-3.3-4.7-5c-12-13-40.8-32.6-88.9-46.3c-69.1-19.6-81.3-66-80-79.3s28.7-44,69.3-40.7
	s190-6.7,195.3-18s97.3-30,114-20.7s31.3,40,108,32s112.7-48.7,167.3-30s88,57.3,154.6,50.7s0.7,88.6-36.6,98c0,0-29.3,2-38,34
	s-48,115.3-130.7,89.3c0,0-41.3-23.3-80.7-3.3s-82.6,70-136.3,10.7s-88.3-22-88.3-22s-1.2,0.9-3.3,2.2c-26,15.7-59.5,11.2-80.8-10.5
	L173.6,212.8z"/>
</svg>
