<?xml version="1.0" encoding="utf-8"?>
<!-- Generator: Adobe Illustrator 19.2.1, SVG Export Plug-In . SVG Version: 6.00 Build 0)  -->
<svg version="1.1" id="Слой_1" xmlns="http://www.w3.org/2000/svg" xmlns:xlink="http://www.w3.org/1999/xlink" x="0px" y="0px"
	 viewBox="0 0 1280 10" style="enable-background:new 0 0 1280 10;" xml:space="preserve">
<style type="text/css">
	.st0{fill:none;stroke:#4C4B4B;stroke-width:0.3;stroke-miterlimit:10;}
</style>
<polyline class="st0" points="631.4,9.3 640,0.7 648.6,9.3 "/>
<polyline class="st0" points="648.6,9.5 657.1,0.9 665.7,9.5 "/>
<polyline class="st0" points="597.2,9.4 605.8,0.8 614.3,9.4 "/>
<polyline class="st0" points="614.3,9.6 622.9,1 631.4,9.6 "/>
<polyline class="st0" points="699.9,9.1 708.5,0.6 717.1,9.1 "/>
<polyline class="st0" points="717.1,9.3 725.6,0.8 734.2,9.3 "/>
<polyline class="st0" points="665.7,9.2 674.3,0.7 682.8,9.2 "/>
<polyline class="st0" points="682.8,9.4 691.4,0.9 699.9,9.4 "/>
<polyline class="st0" points="494.4,9.2 503,0.6 511.6,9.2 "/>
<polyline class="st0" points="511.6,9.4 520.1,0.8 528.7,9.4 "/>
<polyline class="st0" points="460.2,9.3 468.8,0.7 477.3,9.3 "/>
<polyline class="st0" points="477.3,9.5 485.9,0.9 494.4,9.5 "/>
<polyline class="st0" points="562.9,9 571.5,0.4 580.1,9 "/>
<polyline class="st0" points="580.1,9.2 588.6,0.6 597.2,9.2 "/>
<polyline class="st0" points="528.7,9.1 537.3,0.5 545.8,9.1 "/>
<polyline class="st0" points="545.8,9.3 554.4,0.7 562.9,9.3 "/>
<polyline class="st0" points="905.4,9 914,0.4 922.6,9 "/>
<polyline class="st0" points="922.6,9.2 931.1,0.6 939.7,9.2 "/>
<polyline class="st0" points="871.2,9.1 879.8,0.5 888.3,9.1 "/>
<polyline class="st0" points="888.3,9.3 896.9,0.7 905.4,9.3 "/>
<polyline class="st0" points="973.9,8.8 982.5,0.3 991.1,8.8 "/>
<polyline class="st0" points="991.1,9 999.6,0.5 1008.2,9 "/>
<polyline class="st0" points="939.7,8.9 948.3,0.4 956.8,8.9 "/>
<polyline class="st0" points="956.8,9.1 965.4,0.6 973.9,9.1 "/>
<polyline class="st0" points="768.4,8.8 777,0.3 785.6,8.8 "/>
<polyline class="st0" points="785.6,9.1 794.1,0.5 802.7,9.1 "/>
<polyline class="st0" points="734.2,9 742.8,0.4 751.3,9 "/>
<polyline class="st0" points="751.3,9.2 759.9,0.6 768.4,9.2 "/>
<polyline class="st0" points="836.9,8.7 845.5,0.1 854.1,8.7 "/>
<polyline class="st0" points="854.1,8.9 862.6,0.3 871.2,8.9 "/>
<polyline class="st0" points="802.7,8.8 811.3,0.2 819.8,8.8 "/>
<polyline class="st0" points="819.8,9 828.4,0.4 836.9,9 "/>
<polyline class="st0" points="83.4,9.7 92,1.2 100.6,9.7 "/>
<polyline class="st0" points="100.6,9.9 109.1,1.4 117.7,9.9 "/>
<polyline class="st0" points="49.2,9.8 57.8,1.3 66.3,9.8 "/>
<polyline class="st0" points="66.3,10 74.9,1.5 83.4,10 "/>
<polyline class="st0" points="151.9,9.6 160.5,1 169.1,9.6 "/>
<polyline class="st0" points="169.1,9.8 177.6,1.2 186.2,9.8 "/>
<polyline class="st0" points="117.7,9.7 126.3,1.1 134.8,9.7 "/>
<polyline class="st0" points="134.8,9.9 143.4,1.3 151.9,9.9 "/>
<polyline class="st0" points="-53.6,9.6 -45,1 -36.4,9.6 "/>
<polyline class="st0" points="-36.4,9.8 -27.9,1.2 -19.3,9.8 "/>
<polyline class="st0" points="-87.8,9.7 -79.3,1.1 -70.7,9.7 "/>
<polyline class="st0" points="-70.7,9.9 -62.1,1.4 -53.6,9.9 "/>
<polyline class="st0" points="14.9,9.4 23.5,0.9 32.1,9.4 "/>
<polyline class="st0" points="32.1,9.7 40.6,1.1 49.2,9.7 "/>
<polyline class="st0" points="-19.3,9.5 -10.8,1 -2.2,9.5 "/>
<polyline class="st0" points="-2.2,9.8 6.4,1.2 14.9,9.8 "/>
<polyline class="st0" points="357.4,9.4 366,0.9 374.6,9.4 "/>
<polyline class="st0" points="374.6,9.6 383.1,1.1 391.7,9.6 "/>
<polyline class="st0" points="323.2,9.5 331.8,1 340.3,9.5 "/>
<polyline class="st0" points="340.3,9.7 348.9,1.2 357.4,9.7 "/>
<polyline class="st0" points="425.9,9.3 434.5,0.7 443.1,9.3 "/>
<polyline class="st0" points="443.1,9.5 451.6,0.9 460.2,9.5 "/>
<polyline class="st0" points="391.7,9.4 400.3,0.8 408.8,9.4 "/>
<polyline class="st0" points="408.8,9.6 417.4,1 425.9,9.6 "/>
<polyline class="st0" points="220.4,9.3 229,0.7 237.6,9.3 "/>
<polyline class="st0" points="237.6,9.5 246.1,0.9 254.7,9.5 "/>
<polyline class="st0" points="186.2,9.4 194.8,0.8 203.3,9.4 "/>
<polyline class="st0" points="203.3,9.6 211.9,1.1 220.4,9.6 "/>
<polyline class="st0" points="288.9,9.1 297.5,0.6 306.1,9.1 "/>
<polyline class="st0" points="306.1,9.4 314.6,0.8 323.2,9.4 "/>
<polyline class="st0" points="254.7,9.2 263.3,0.7 271.8,9.2 "/>
<polyline class="st0" points="271.8,9.5 280.4,0.9 288.9,9.5 "/>
<polyline class="st0" points="1179.4,8.8 1188,0.3 1196.6,8.8 "/>
<polyline class="st0" points="1196.6,9 1205.1,0.5 1213.7,9 "/>
<polyline class="st0" points="1145.2,8.9 1153.8,0.4 1162.3,8.9 "/>
<polyline class="st0" points="1162.3,9.1 1170.9,0.6 1179.4,9.1 "/>
<polyline class="st0" points="1247.9,8.7 1256.5,0.1 1265.1,8.7 "/>
<polyline class="st0" points="1265.1,8.9 1273.6,0.3 1282.2,8.9 "/>
<polyline class="st0" points="1213.7,8.8 1222.3,0.2 1230.8,8.8 "/>
<polyline class="st0" points="1230.8,9 1239.4,0.4 1247.9,9 "/>
<polyline class="st0" points="1042.4,8.7 1051,0.1 1059.6,8.7 "/>
<polyline class="st0" points="1059.6,8.9 1068.1,0.3 1076.7,8.9 "/>
<polyline class="st0" points="1008.2,8.8 1016.8,0.2 1025.3,8.8 "/>
<polyline class="st0" points="1025.3,9 1033.9,0.5 1042.4,9 "/>
<polyline class="st0" points="1110.9,8.5 1119.5,0 1128.1,8.5 "/>
<polyline class="st0" points="1128.1,8.8 1136.6,0.2 1145.2,8.8 "/>
<polyline class="st0" points="1076.7,8.6 1085.3,0.1 1093.8,8.6 "/>
<polyline class="st0" points="1093.8,8.9 1102.4,0.3 1110.9,8.9 "/>
<polyline class="st0" points="1453.4,8.5 1462,0 1470.6,8.5 "/>
<polyline class="st0" points="1470.6,8.7 1479.1,0.2 1487.7,8.7 "/>
<polyline class="st0" points="1419.2,8.6 1427.8,0.1 1436.3,8.6 "/>
<polyline class="st0" points="1436.3,8.8 1444.9,0.3 1453.4,8.8 "/>
<polyline class="st0" points="1521.9,8.4 1530.5,-0.2 1539.1,8.4 "/>
<polyline class="st0" points="1539.1,8.6 1547.6,0 1556.2,8.6 "/>
<polyline class="st0" points="1487.7,8.5 1496.3,-0.1 1504.8,8.5 "/>
<polyline class="st0" points="1504.8,8.7 1513.4,0.1 1521.9,8.7 "/>
<polyline class="st0" points="1316.4,8.4 1325,-0.2 1333.6,8.4 "/>
<polyline class="st0" points="1333.6,8.6 1342.1,0 1350.7,8.6 "/>
<polyline class="st0" points="1282.2,8.5 1290.8,-0.1 1299.3,8.5 "/>
<polyline class="st0" points="1299.3,8.7 1307.9,0.2 1316.4,8.7 "/>
<polyline class="st0" points="1384.9,8.2 1393.5,-0.3 1402.1,8.2 "/>
<polyline class="st0" points="1402.1,8.5 1410.6,-0.1 1419.2,8.5 "/>
<polyline class="st0" points="1350.7,8.3 1359.3,-0.2 1367.8,8.3 "/>
<polyline class="st0" points="1367.8,8.6 1376.4,0 1384.9,8.6 "/>
</svg>
