<!-- Generator: Adobe Illustrator 19.0.1, SVG Export Plug-In  -->
<svg version="1.1"
	 xmlns="http://www.w3.org/2000/svg" xmlns:xlink="http://www.w3.org/1999/xlink" xmlns:a="http://ns.adobe.com/AdobeSVGViewerExtensions/3.0/"
	 x="0px" y="0px" width="135.571px" height="114.714px" viewBox="0 0 135.571 114.714"
	 style="enable-background:new 0 0 135.571 114.714;" xml:space="preserve">
<style type="text/css">
	.st0{fill:#FFFFFF;}
</style>
<defs>
</defs>
<g>
	<path class="st0" d="M88.643,62.571h18.25c2.173,0,4.02,0.76,5.541,2.281c1.52,1.521,2.281,3.368,2.281,5.541v2.606
		c0,5.758-2.037,10.673-6.111,14.747c-4.074,4.073-8.99,6.11-14.747,6.11h-5.214c-1.412,0-2.634,0.516-3.666,1.548
		c-1.032,1.032-1.548,2.254-1.548,3.666v10.429c0,1.412,0.516,2.635,1.548,3.667c1.032,1.031,2.254,1.548,3.666,1.548h5.214
		c5.649,0,11.039-1.101,16.172-3.3c5.133-2.2,9.573-5.174,13.321-8.922c3.748-3.747,6.721-8.187,8.921-13.32
		c2.2-5.133,3.3-10.524,3.3-16.173V15.643c0-4.347-1.52-8.039-4.562-11.081C127.967,1.521,124.273,0,119.928,0L88.641,0
		c-4.345,0-8.038,1.521-11.08,4.562c-3.041,3.042-4.562,6.734-4.562,11.081v31.285c0,4.346,1.521,8.038,4.564,11.081
		C80.604,61.05,84.298,62.571,88.643,62.571z"/>
	<path class="st0" d="M4.56,58.009c3.041,3.041,6.734,4.562,11.08,4.562h18.25c2.172,0,4.02,0.76,5.539,2.281
		c1.521,1.521,2.281,3.368,2.281,5.541v2.606c0,5.758-2.037,10.673-6.109,14.747c-4.073,4.073-8.989,6.11-14.748,6.11H15.64
		c-1.412,0-2.635,0.516-3.666,1.548c-1.032,1.032-1.549,2.254-1.549,3.666v10.429c0,1.412,0.517,2.635,1.549,3.667
		c1.031,1.031,2.254,1.548,3.666,1.548h5.213c5.652,0,11.041-1.101,16.175-3.3c5.132-2.2,9.571-5.174,13.319-8.922
		c3.748-3.747,6.722-8.187,8.922-13.32c2.199-5.133,3.3-10.524,3.3-16.173V15.643c0-4.347-1.521-8.039-4.562-11.081
		C54.966,1.521,51.273,0,46.927,0L15.642,0c-4.347,0-8.039,1.521-11.08,4.562C1.519,7.604,0,11.296,0,15.643l0,31.285
		C0,51.274,1.519,54.966,4.56,58.009z"/>
</g>
</svg>