<svg id="Слой_1" data-name="Слой 1" xmlns="http://www.w3.org/2000/svg" viewBox="0 0 233 233"><defs><style>.cls-1{fill:#210a35;}.cls-2{fill:none;stroke:#fff;stroke-miterlimit:10;stroke-width:2px;}</style></defs><title>использовано краски</title><circle class="cls-1" cx="116.5" cy="116.5" r="116.5"/><path class="cls-2" d="M87.95,120.22a26,26,0,0,1-.36-4.29c0-17.27,17.09-31.28,38.17-31.28,20.92,0,38.17,14.27,38.17,31.28a26,26,0,0,1-.36,4.29" transform="translate(-8.5 -21.5)"/><path class="cls-2" d="M126.83,146.78" transform="translate(-8.5 -21.5)"/><path class="cls-2" d="M160.63,127.59L153,179.24a11,11,0,0,1-11,9.26H113a11,11,0,0,1-11-9L93,127.59" transform="translate(-8.5 -21.5)"/><path class="cls-2" d="M160,127.55c-1,5-3.8,9.07-5.55,9.82s-2.86-.29-5-1.62-2.72.42-2.72,0.42a31.14,31.14,0,0,0-.7,9,36.39,36.39,0,0,0,3,11.67c2.25,10.33-2.4,11.08-7.07,11.08s-5.83-6.58-4-9.91,2.25-15,2.34-16.83,1.42-7.08-3.91-7.47-4,5.37-4,5.37,1.75,5.56-1.75,8.9-11.25,3-15.42,1.72-9.25-8.64-9.83-9.72-2-2.19-6.33-3.19S92,127.57,92,127.57h0a5,5,0,0,1-5-4.9v-0.13c0-2.7,3.3-3.55,6-3.55h67.67c2.7,0,3.33.84,3.33,3.55v0.06c0,2.7-1,4.94-4,4.94h0Z" transform="translate(-8.5 -21.5)"/></svg>