<svg id="Слой_1" data-name="Слой 1" xmlns="http://www.w3.org/2000/svg" viewBox="0 0 450.18 502.11"><defs><style>.cls-1{fill:#0b0411;}.cls-2,.cls-4{fill:#fff;}.cls-2{stroke:#20a994;stroke-miterlimit:10;}.cls-3{fill:none;stroke:#fff;stroke-linejoin:round;}.cls-5{fill:#20a994;}</style></defs><title>фон хедер</title><path class="cls-1" d="M27.95,374.94L28.1,200.19a55.14,55.14,0,0,1,25.43-46.41L223.43,45.13a55.14,55.14,0,0,1,59.42,0L452.7,153.77a55.14,55.14,0,0,1,25.43,46.45V374.74a55.14,55.14,0,0,1-25.45,46.47L282.59,529.88a55.14,55.14,0,0,1-59.37,0L53.42,421.47A55.14,55.14,0,0,1,27.95,374.94Z" transform="translate(-27.95 -36.44)"/><rect class="cls-2" x="159.53" y="172.42" width="136.75" height="28.1" rx="5.15" ry="5.15"/><path class="cls-3" d="M255.86,150.39V162.3l-74,42.27c-7.86,4.72-5.68,17,3.4,18.24l0.22,0a11.79,11.79,0,0,0,1.36.08" transform="translate(-27.95 -36.44)"/><path class="cls-4" d="M258.25,89.49h-4.8a5.28,5.28,0,0,0-5.28,5.28v50.36a5.28,5.28,0,0,0,5.28,5.28h4.8a5.28,5.28,0,0,0,5.28-5.28V94.76A5.28,5.28,0,0,0,258.25,89.49ZM255.86,100A3.16,3.16,0,1,1,259,96.81,3.16,3.16,0,0,1,255.86,100Z" transform="translate(-27.95 -36.44)"/><path class="cls-5" d="M240.79,227.86v-0.07a5,5,0,0,1-5.84,4.93,5.19,5.19,0,0,1-4.16-5.2v-3.78a3.16,3.16,0,0,0-3.17-3.14,3,3,0,0,0-3.14,3,3.16,3.16,0,0,1-6.31,0v-2.26a8.34,8.34,0,0,0-8.78-8.32c-4.51.24-7.89,4.28-7.89,8.79v5.24a3.16,3.16,0,0,1-6.31,0v-1.66a5.23,5.23,0,0,0-4.43-5.3,5,5,0,0,0-3.28.77v4.3a11.57,11.57,0,0,0,2,6.95l0.26,17.23a3.16,3.16,0,0,0,6.31,0v-4.73a3.16,3.16,0,0,1,6.31,0v59.57a3.16,3.16,0,1,0,6.31,0v-29a3.16,3.16,0,0,1,6.31,0v15.64a5.2,5.2,0,0,0,4.24,5.23,5,5,0,0,0,5.76-4.89,5.08,5.08,0,0,1,3.86-4.93,5,5,0,0,1,6.14,4.87V318a3.16,3.16,0,1,0,6.31,0v0.48a3.16,3.16,0,0,1,6.31,0V345.2c0,4.51,3.38,8.56,7.89,8.79a8.34,8.34,0,0,0,8.78-8.32V318.52a3.16,3.16,0,0,1,6.3-.2,5.31,5.31,0,0,0,3.76,5.05,5,5,0,0,0,6.25-4.85v-40a5,5,0,0,1,5.84-4.93,5.19,5.19,0,0,1,4.16,5.2v29.82a3.16,3.16,0,0,0,6.31,0V287.09a3.16,3.16,0,1,1,6.31,0,3.16,3.16,0,1,0,6.31,0V255.24a3.16,3.16,0,0,1,6.31,0,3.16,3.16,0,0,0,6.31,0l0.2-23.58a12.14,12.14,0,0,0,1.89-6.85v-4.26A8.33,8.33,0,0,0,310,226.43v-0.21a3.16,3.16,0,1,1-6.31,0V220.5a8.34,8.34,0,0,0-8.79-8.32c-4.51.24-7.89,4.29-7.88,8.8v1.78a3.16,3.16,0,1,1-6.31,0,3,3,0,0,0-3.14-3,3.16,3.16,0,0,0-3.17,3.14v4a5,5,0,0,1-5.84,4.93,5.19,5.19,0,0,1-4.16-5.2v-4.92a3.16,3.16,0,0,0-3.17-3.14,3,3,0,0,0-3.14,3h0c0,3.83-3.68,5.69-6.3,5.72-2.82,0-6.5-2.06-6.45-4.68a2.29,2.29,0,0,0-2.3-2.27,2.16,2.16,0,0,0-2.27,2.14l0,5.3" transform="translate(-27.95 -36.44)"/><path class="cls-5" d="M172.3,379.41a7,7,0,0,1-7.53-7.53V330c0.59-.11,1.54-0.25,2.83-0.45a26.21,26.21,0,0,1,3.73-.28,17.06,17.06,0,0,1,3.28.28,5.86,5.86,0,0,1,2.39,1,4.35,4.35,0,0,1,1.46,2,9.86,9.86,0,0,1,.49,3.4v32h8.36V268c0-.78-0.07-1.55-0.14-2.32h0.14c0-30.65-29.17-55.49-65.16-55.49h0v40.35c0.43-.19.87-0.37,1.32-0.53a28.38,28.38,0,0,1,9.89-1.7q7.45,0,11.55,2.43T149,257a6.31,6.31,0,0,1-1.05,3.65,8.72,8.72,0,0,1-2.43,2.43,26.53,26.53,0,0,0-4.5-2.35,14.62,14.62,0,0,0-5.55-1q-6.24,0-9.56,3.81t-3.32,10.78q0,7,3.69,10.86t9.93,3.81a15.65,15.65,0,0,0,5.63-.89,38.56,38.56,0,0,0,4.42-2,8.07,8.07,0,0,1,2.15,2.72,8.33,8.33,0,0,1,.77,3.69q0,3.32-3.69,5.63t-11.22,2.31A33.1,33.1,0,0,1,124,298.87c-0.65-.21-1.27-0.44-1.88-0.7v96.46c0.74-.14,1.49-0.26,2.29-0.36a64.25,64.25,0,0,1,7.78-.45q11.18,0,16.86,4.7t5.67,12.72a14.2,14.2,0,0,1-2.59,8.59,18.61,18.61,0,0,1-6.16,5.51q2.92,4,5.75,7.46a48.23,48.23,0,0,1,4.46,6.32,7.64,7.64,0,0,1-3,4.34,8.24,8.24,0,0,1-4.82,1.5,10.44,10.44,0,0,1-3.08-.4,7.43,7.43,0,0,1-2.27-1.13,9.34,9.34,0,0,1-1.78-1.78,23.57,23.57,0,0,1-1.54-2.27l-6.81-10.94h-4.29v0.85c10.55,18.53,32.85,31.3,58.66,31.3V379.41h-15Z" transform="translate(-27.95 -36.44)"/><path class="cls-5" d="M138.61,416.08a5.91,5.91,0,0,0,1.78-4.66,5.59,5.59,0,0,0-2-4.66q-2-1.58-6.28-1.58a18.52,18.52,0,0,0-1.95.08q-0.73.08-1.62,0.24v12.16h5.19A7.06,7.06,0,0,0,138.61,416.08Z" transform="translate(-27.95 -36.44)"/><path class="cls-5" d="M382.88,343.13q-3,3.6-3,11t3,11a9.85,9.85,0,0,0,8,3.65h0V339.53A10,10,0,0,0,382.88,343.13Z" transform="translate(-27.95 -36.44)"/><path class="cls-5" d="M325.88,265.51c-0.07.77-.14,1.54-0.14,2.32v20.9a12.69,12.69,0,0,0,1.37.08,9.94,9.94,0,0,0,8.1-3.65q3-3.65,3-11t-3-10.94a9.82,9.82,0,0,0-8.06-3.65c-0.37,0-.73,0-1.08,0a47.86,47.86,0,0,0-.37,5.9h0.14Z" transform="translate(-27.95 -36.44)"/><path class="cls-5" d="M335.43,442.74a17,17,0,0,0-3.65-1.66l-3.4-1.13c-0.92-.31-1.79-0.63-2.64-0.94v9.93a21,21,0,0,0,3.78.33q4,0,5.59-1.22a3.5,3.5,0,0,0,1.62-2.83A2.78,2.78,0,0,0,335.43,442.74Z" transform="translate(-27.95 -36.44)"/><path class="cls-5" d="M390.9,380.2h0a29.22,29.22,0,0,1-10.21-1.74,22.76,22.76,0,0,1-8.1-5.06,23.38,23.38,0,0,1-5.35-8.18,29.69,29.69,0,0,1-1.94-11.1,29.36,29.36,0,0,1,2-11.18,22.54,22.54,0,0,1,13.53-13.13,29.22,29.22,0,0,1,10.09-1.7h0V210h0C362,210,337.54,226,329,248.19a28.55,28.55,0,0,1,8.21,1.64,23.54,23.54,0,0,1,8.14,5,22.9,22.9,0,0,1,5.47,8.14,29.36,29.36,0,0,1,2,11.18,30.25,30.25,0,0,1-1.94,11.22,22.66,22.66,0,0,1-5.39,8.18,23,23,0,0,1-8.14,5,29.81,29.81,0,0,1-10.21,1.7l-1.37,0V409.63a33.94,33.94,0,0,1,6.86-.65,40.79,40.79,0,0,1,6.48.49,19.38,19.38,0,0,1,5.15,1.5,9,9,0,0,1,3.36,2.59,5.89,5.89,0,0,1,1.22,3.69,6.49,6.49,0,0,1-1,3.61,10.1,10.1,0,0,1-2.35,2.55,18.44,18.44,0,0,0-4.78-2,24,24,0,0,0-6.56-.85,10.81,10.81,0,0,0-5.35,1,3,3,0,0,0-1.7,2.55,2.35,2.35,0,0,0,1.05,2,10.89,10.89,0,0,0,3.16,1.42l4.3,1.38q7.62,2.43,11.71,6.2t4.09,10.25A13.48,13.48,0,0,1,346,456.51a16.44,16.44,0,0,1-3.44,2c27.85-6.31,48.37-27.92,48.37-53.62h-0.05c0-.29.05-0.57,0.05-0.86V380.2Z" transform="translate(-27.95 -36.44)"/><path d="M-80.48,461.06" transform="translate(-27.95 -36.44)"/></svg>