<svg id="Слой_2" data-name="Слой 2" xmlns="http://www.w3.org/2000/svg" xmlns:xlink="http://www.w3.org/1999/xlink" viewBox="0 0 301.16 502.11"><defs><style>.cls-1,.cls-3{fill:#fff;}.cls-1{stroke:#20a994;stroke-miterlimit:10;}.cls-2{fill:none;stroke:#fff;stroke-linejoin:round;}.cls-4{fill:#20a994;}</style></defs><title>лого меню</title><image width="595" height="992" transform="scale(0.51)" xlink:href="logomenu.png"/><g id="Слой_1" data-name="Слой 1"><rect class="cls-1" x="96.89" y="92.19" width="95.91" height="19.71" rx="9.85" ry="9.85"/><path class="cls-2" d="M144.85,52.51v8.35L92.95,90.51c-5.51,3.31-4,11.92,2.38,12.79h0.15a8.27,8.27,0,0,0,1,.06" transform="translate(0 -1.32)"/><path class="cls-3" d="M146.52,9.79h-3.37a3.7,3.7,0,0,0-3.7,3.7V48.82a3.7,3.7,0,0,0,3.7,3.7h3.37a3.7,3.7,0,0,0,3.7-3.7V13.49A3.7,3.7,0,0,0,146.52,9.79Zm-1.68,7.37a2.22,2.22,0,1,1,2.2-2.24,2.22,2.22,0,0,1-2.2,2.24h0Z" transform="translate(0 -1.32)"/><path class="cls-4" d="M134.28,106.84v0a3.51,3.51,0,0,1-4.1,3.46,3.64,3.64,0,0,1-2.92-3.65V104a2.22,2.22,0,0,0-2.22-2.2,2.1,2.1,0,0,0-2.2,2s0,0.07,0,.1a2.22,2.22,0,0,1-4.43,0v-1.59a5.85,5.85,0,0,0-5.86-5.84h-0.3a6.07,6.07,0,0,0-5.53,6.17v3.68a2.22,2.22,0,0,1-4.43,0v-1.16a3.67,3.67,0,0,0-3.11-3.72,3.51,3.51,0,0,0-2.3.54v3a8.11,8.11,0,0,0,1.4,4.87l0.18,12.08a2.22,2.22,0,0,0,4.43,0v-3.32a2.22,2.22,0,0,1,4.43,0v41.78a2.22,2.22,0,1,0,4.43,0V140a2.22,2.22,0,0,1,4.43,0v11a3.65,3.65,0,0,0,3,3.67,3.51,3.51,0,0,0,4-3.43,3.56,3.56,0,0,1,2.71-3.46,3.51,3.51,0,0,1,4.31,3.42v18.87a2.22,2.22,0,1,0,4.43,0v0.34a2.22,2.22,0,0,1,4.43,0v18.74a6.06,6.06,0,0,0,5.53,6.17,5.85,5.85,0,0,0,6.15-5.53q0-.15,0-0.3v-19a2.22,2.22,0,0,1,4.42-.14,3.72,3.72,0,0,0,2.64,3.54,3.51,3.51,0,0,0,4.38-3.4V142.37a3.51,3.51,0,0,1,4.1-3.46,3.64,3.64,0,0,1,2.92,3.65v20.91a2.22,2.22,0,0,0,4.43,0V148.38a2.22,2.22,0,1,1,4.43,0,2.22,2.22,0,1,0,4.43,0V126a2.22,2.22,0,0,1,4.43,0,2.22,2.22,0,0,0,4.43,0l0.14-16.54a8.51,8.51,0,0,0,1.33-4.8v-3a5.84,5.84,0,0,0-10,4.12v-0.15a2.22,2.22,0,1,1-4.43,0v-4a5.85,5.85,0,0,0-5.85-5.84h-0.31A6.07,6.07,0,0,0,166.7,102v1.25a2.22,2.22,0,1,1-4.43,0,2.1,2.1,0,0,0-2.1-2.11h-0.1a2.22,2.22,0,0,0-2.22,2.2v2.81a3.51,3.51,0,0,1-4.1,3.46,3.64,3.64,0,0,1-2.92-3.65v-3.45a2.22,2.22,0,0,0-2.22-2.2,2.1,2.1,0,0,0-2.2,2s0,0.07,0,.1h0c0,2.69-2.58,4-4.42,4s-4.56-1.44-4.52-3.28a1.61,1.61,0,0,0-1.61-1.59,1.51,1.51,0,0,0-1.59,1.44s0,0,0,.07v3.72" transform="translate(0 -1.32)"/><path class="cls-4" d="M86.24,213.14A4.91,4.91,0,0,1,81,207.85V178.48c0.41-.08,1.08-0.18,2-0.32a18.39,18.39,0,0,1,2.62-.2,12,12,0,0,1,2.3.2,4.11,4.11,0,0,1,1.68.7,3.05,3.05,0,0,1,1,1.4,6.92,6.92,0,0,1,.34,2.38V205.1h5.86V135c0-.55,0-1.09-0.1-1.63h0.1c0-21.5-20.46-38.92-45.7-38.92h0v28.3c0.3-.13.61-0.26,0.93-0.37a19.9,19.9,0,0,1,6.94-1.19q5.23,0,8.1,1.7t2.87,4.39a4.43,4.43,0,0,1-.74,2.56,6.12,6.12,0,0,1-1.7,1.7,18.61,18.61,0,0,0-3.16-1.65,10.25,10.25,0,0,0-3.89-.7,8.41,8.41,0,0,0-6.71,2.67q-2.33,2.67-2.33,7.56T54,147a9.08,9.08,0,0,0,7,2.67,11,11,0,0,0,3.95-.62,27,27,0,0,0,3.1-1.4,5.66,5.66,0,0,1,1.51,1.91,5.84,5.84,0,0,1,.54,2.59q0,2.33-2.59,3.95t-7.87,1.62a23.22,23.22,0,0,1-7.2-1.11c-0.46-.15-0.89-0.31-1.32-0.49v67.65c0.52-.1,1-0.18,1.61-0.25a45.06,45.06,0,0,1,5.46-.32q7.84,0,11.83,3.3a11,11,0,0,1,4,8.92,10,10,0,0,1-1.82,6,13.05,13.05,0,0,1-4.32,3.86q2,2.81,4,5.23A33.83,33.83,0,0,1,74.93,255a5.36,5.36,0,0,1-2.1,3,5.78,5.78,0,0,1-3.38,1.05,7.32,7.32,0,0,1-2.16-.28A5.21,5.21,0,0,1,65.7,258a6.55,6.55,0,0,1-1.25-1.25,16.53,16.53,0,0,1-1.08-1.59l-4.78-7.67h-3v0.6c7.4,13,23,22,41.14,22V213.14H86.24Z" transform="translate(0 -1.32)"/><path class="cls-4" d="M62.61,238.85a4.15,4.15,0,0,0,1.25-3.27,3.92,3.92,0,0,0-1.4-3.27,7.09,7.09,0,0,0-4.4-1.11,13,13,0,0,0-1.37.06q-0.51.06-1.14,0.17V240h3.64A5,5,0,0,0,62.61,238.85Z" transform="translate(0 -1.32)"/><path class="cls-4" d="M233.93,187.69q-2.1,2.52-2.1,7.72t2.1,7.72a6.91,6.91,0,0,0,5.61,2.56h0V185.16A7,7,0,0,0,233.93,187.69Z" transform="translate(0 -1.32)"/><path class="cls-4" d="M194,133.25c0,0.54-.1,1.08-0.1,1.63v14.66a8.9,8.9,0,0,0,1,.06A7,7,0,0,0,200.5,147q2.1-2.56,2.1-7.72t-2.1-7.67a6.89,6.89,0,0,0-5.65-2.56h-0.76a33.57,33.57,0,0,0-.26,4.14h0.1Z" transform="translate(0 -1.32)"/><path class="cls-4" d="M200.65,257.55a11.92,11.92,0,0,0-2.56-1.16l-2.38-.79c-0.65-.22-1.26-0.44-1.85-0.66v7a14.73,14.73,0,0,0,2.65.23,6.66,6.66,0,0,0,3.92-.86,2.45,2.45,0,0,0,1.14-2A2,2,0,0,0,200.65,257.55Z" transform="translate(0 -1.32)"/><path class="cls-4" d="M239.56,213.69h0a20.49,20.49,0,0,1-7.16-1.22,16,16,0,0,1-5.68-3.55,16.4,16.4,0,0,1-3.75-5.74,20.82,20.82,0,0,1-1.36-7.79,20.59,20.59,0,0,1,1.4-7.84,15.81,15.81,0,0,1,9.49-9.21,20.49,20.49,0,0,1,7.08-1.19h0V94.32h0c-20.28,0-37.44,11.22-43.43,26.79a20,20,0,0,1,5.76,1.15,16.51,16.51,0,0,1,5.71,3.51,16.06,16.06,0,0,1,3.84,5.71,20.59,20.59,0,0,1,1.4,7.84,21.22,21.22,0,0,1-1.36,7.87,15.89,15.89,0,0,1-3.78,5.74,16.13,16.13,0,0,1-5.71,3.51,20.91,20.91,0,0,1-7.16,1.19h-1v76.72a23.8,23.8,0,0,1,4.81-.46,28.61,28.61,0,0,1,4.54.34,13.59,13.59,0,0,1,3.61,1.05,6.31,6.31,0,0,1,2.36,1.82,4.13,4.13,0,0,1,.86,2.59,4.55,4.55,0,0,1-.7,2.53,7.08,7.08,0,0,1-1.65,1.79,12.93,12.93,0,0,0-3.35-1.4,16.83,16.83,0,0,0-4.6-.6,7.58,7.58,0,0,0-3.75.7,2.1,2.1,0,0,0-1.19,1.79,1.65,1.65,0,0,0,.74,1.4,7.64,7.64,0,0,0,2.22,1l3,1A21.77,21.77,0,0,1,209,252.2a9.3,9.3,0,0,1,2.87,7.19,9.45,9.45,0,0,1-3.79,7.82,11.53,11.53,0,0,1-2.41,1.4c19.53-4.43,33.93-19.58,33.93-37.61h0c0-.2,0-0.4,0-0.6V213.69h0Z" transform="translate(0 -1.32)"/></g></svg>