<svg id="Слой_1" data-name="Слой 1" xmlns="http://www.w3.org/2000/svg" viewBox="0 0 233 233"><defs><style>.cls-1{fill:#210a35;}.cls-2{fill:none;stroke:#fff;stroke-miterlimit:10;stroke-width:2px;}</style></defs><title>реализовано идей</title><circle class="cls-1" cx="116.5" cy="116.5" r="116.5"/><path class="cls-2" d="M98.58,152.51A43,43,0,0,1,86.25,123.1a38.75,38.75,0,1,1,64,29.42" transform="translate(-8.5 -21.5)"/><rect class="cls-2" x="95.83" y="138.07" width="41.33" height="5.89" rx="2.9" ry="2.9"/><rect class="cls-2" x="97.17" y="144.15" width="38.67" height="5.79" rx="2.9" ry="2.9"/><rect class="cls-2" x="98.17" y="150" width="36.67" height="5.61" rx="2.79" ry="2.79"/><rect class="cls-2" x="102.17" y="155.6" width="28.67" height="5.47" rx="2.73" ry="2.73"/><path class="cls-2" d="M131.08,182.57h0a6.08,6.08,0,0,1-6.08,6.08h0a6.08,6.08,0,0,1-6.08-6.08h0" transform="translate(-8.5 -21.5)"/></svg>