<svg id="Слой_1" data-name="Слой 1" xmlns="http://www.w3.org/2000/svg" viewBox="0 0 1281 886">
  <defs>
    <style>
      .cls-1 {
        fill: #fff;
      }

      .cls-2 {
        fill: #16121c;
        opacity: 0.7;
        isolation: isolate;
      }

      .cls-3 {
        fill: #210a35;
      }
    </style>
  </defs>
  <title>фон хедер</title>
  <rect class="cls-1" width="1281" height="885.89"/>
  <path class="cls-2" d="M1174,607c2-49,46-78,92-78h15V0H0V500H30c42,0,76,36,75,81v11c0,27,19,48,41,48s41-22,41-48V555c0-30,23-54,51-54h0c28,0,51,24,51,54v82c0,27,19,48,41,48s41-22,41-48V626c0-44,33-79,74-79h0c41,0,74,36,74,79v34c0,21,15,38,33,38s33-17,33-38h0c0-19,11-36,26-45a47,47,0,0,1,25-7h0a46,46,0,0,1,21,5c18,9,30,26,30,47v58c0,27,19,48,41,48s41-22,41-48V597c0-27,21-50,47-50h10c26,0,47,22,47,50h0c0,21,15,38,33,38s33-17,33-38v-9c1-44,34-79,75-79h0c42,0,76,36,75,81l2,21c0,27,19,48,41,48s40-20,41-46a42,42,0,0,0,1-7h0Z" transform="translate(0 0)"/>
  <path class="cls-3" d="M1174,602c2-49,46-78,92-78l15,2V0H0V495H30c42,0,76,36,75,81v11c0,27,19,48,41,48s41-22,41-48V550c0-30,23-54,51-54h0c28,0,51,24,51,54v82c0,27,19,48,41,48s41-22,41-48V622c0-44,33-79,74-79h0c41,0,74,36,74,79v34c0,21,15,38,33,38s33-17,33-38h0c0-19,11-36,26-45a47,47,0,0,1,25-7h0a46,46,0,0,1,21,5c18,9,30,26,30,47v58c0,27,19,48,41,48s41-22,41-48V592c0-27,21-50,47-50h10c26,0,47,22,47,50h0c0,21,15,38,33,38s33-17,33-38v-9c1-44,34-79,75-79h0c42,0,76,36,75,81l2,21c0,27,19,48,41,48s40-20,41-46a27,27,0,0,0,1-6h0Z" transform="translate(0 0)"/>
</svg>
